<?xml version="1.0" standalone="no"?>
<!DOCTYPE svg PUBLIC "-//W3C//DTD SVG 20010904//EN"
 "http://www.w3.org/TR/2001/REC-SVG-20010904/DTD/svg10.dtd">
<svg version="1.0" xmlns="http://www.w3.org/2000/svg"
 width="260.000000pt" height="260.000000pt" viewBox="0 0 260.000000 260.000000"
 preserveAspectRatio="xMidYMid meet">
<metadata>
Created by potrace 1.11, written by Peter Selinger 2001-2013
</metadata>
<g transform="translate(0.000000,260.000000) scale(0.100000,-0.100000)"
fill="#000000" stroke="none">
<path d="M0 1300 l0 -1300 1300 0 1300 0 0 1300 0 1300 -1300 0 -1300 0 0
-1300z m1575 810 c28 -6 83 -20 124 -32 l73 -22 -6 -85 c-7 -85 -42 -297 -52
-313 -3 -4 -25 -8 -49 -8 l-43 0 -52 155 -52 155 -41 12 c-23 7 -83 12 -133
13 -84 0 -94 -2 -139 -30 -61 -38 -85 -82 -85 -155 1 -119 69 -191 302 -321
178 -99 263 -160 319 -232 58 -72 80 -129 86 -219 14 -195 -66 -347 -224 -426
-104 -52 -180 -66 -358 -66 -173 1 -284 19 -401 66 l-59 24 3 49 c3 58 25 195
49 308 l16 77 46 0 46 0 44 -157 c24 -87 48 -164 54 -171 6 -8 29 -23 51 -35
34 -18 57 -22 131 -21 59 0 102 6 126 16 52 23 109 77 130 123 22 48 24 133 5
178 -22 55 -125 137 -263 211 -218 118 -294 176 -356 269 -53 79 -71 152 -65
264 4 78 10 103 37 157 55 112 166 190 317 221 77 16 330 13 419 -5z"/>
</g>
</svg>
